#N canvas 1709 32 849 1378 12;
#X obj 129 270 delread~ bla 10;
#X obj 107 342 +~;
#X obj 53 114 dirac~;
#X obj 51 65 tgl 15 0 empty empty empty 17 7 0 10 -262144 -1 -1 0 1
;
#X obj 228 129 expr 1/$f1;
#X floatatom 228 104 5 0 0 0 - - -, f 5;
#X obj 130 296 onepole~ 5000;
#X obj 53 88 metro 500;
#X obj 107 393 delwrite~ bla 44100;
#X obj 130 320 *~ 0.999;
#X obj 52 139 slide~ 0 1000;
#X obj 52 188 *~;
#X obj 74 163 noise~;
#X text 0 209 Exciter (plectruum);
#X text 272 102 Freq [Hz];
#X floatatom 228 53 5 0 0 0 - - -, f 5;
#X text 277 52 Pitch [midinote];
#X obj 228 79 mtof;
#X floatatom 227 153 5 0 0 0 - - -, f 5;
#X text 272 154 Period [seconds];
#X floatatom 227 202 5 0 0 0 - - -, f 5;
#X obj 26 395 dac~ 1 2;
#X obj 228 175 * 1000;
#X text 272 200 period [ms];
#X text 245 314 String Model;
#X connect 0 0 6 0;
#X connect 1 0 8 0;
#X connect 1 0 21 0;
#X connect 1 0 21 1;
#X connect 2 0 10 0;
#X connect 3 0 7 0;
#X connect 4 0 18 0;
#X connect 5 0 4 0;
#X connect 6 0 9 0;
#X connect 7 0 2 0;
#X connect 9 0 1 1;
#X connect 10 0 11 0;
#X connect 11 0 1 0;
#X connect 12 0 11 1;
#X connect 15 0 17 0;
#X connect 17 0 5 0;
#X connect 18 0 22 0;
#X connect 20 0 0 0;
#X connect 22 0 20 0;
