#N canvas 25 496 583 461 10;
#X obj 130 45 inlet~;
#N canvas 106 689 450 300 del_in 0;
#X obj 137 67 inlet~;
#X obj 138 156 outlet~;
#X obj 184 133 delwrite~ \$0-inverse 1000;
#X connect 0 0 1 0;
#X connect 0 0 2 0;
#X restore 130 238 pd del_in;
#N canvas 97 207 450 451 del_out 0;
#X obj 91 362 outlet~;
#X obj 92 205 inlet~;
#X obj 178 159 init 0;
#X obj 91 308 -~;
#X obj 106 280 /~;
#X obj 91 333 +~;
#X obj 219 218 inlet~;
#X obj 178 183 delread~ \$0-inverse;
#X connect 1 0 3 0;
#X connect 2 0 7 0;
#X connect 3 0 5 0;
#X connect 4 0 3 1;
#X connect 5 0 0 0;
#X connect 6 0 4 1;
#X connect 7 0 4 0;
#X connect 7 0 5 1;
#X restore 130 185 pd del_out;
#X obj 130 375 outlet~;
#X obj 323 63 inlet;
#X obj 431 71 inlet;
#X obj 338 168 delta~;
#X obj 338 196 >~ 0;
#X obj 323 232 *~;
#X obj 371 231 expr~ 1-$v1;
#X obj 356 263 *~;
#X obj 384 134 sig~;
#X obj 323 306 +~;
#X obj 318 135 sig~;
#X obj 323 383 delwrite~ \$0-fb 1;
#X obj 189 128 delread~ \$0-fb 0;
#X connect 0 0 2 0;
#X connect 1 0 3 0;
#X connect 1 0 14 0;
#X connect 2 0 1 0;
#X connect 4 0 13 0;
#X connect 5 0 11 0;
#X connect 6 0 7 0;
#X connect 7 0 8 1;
#X connect 7 0 9 0;
#X connect 8 0 12 0;
#X connect 9 0 10 1;
#X connect 10 0 12 1;
#X connect 11 0 10 0;
#X connect 12 0 2 1;
#X connect 13 0 8 0;
#X connect 15 0 6 0;
