#N canvas 650 249 343 338 10;
#X obj 39 24 osc~ 100;
#X obj 106 23 vsl 15 128 0 127 0 0 empty empty empty 0 -9 0 10 -262144
-1 -1 2900 1;
#X obj 106 164 / 127;
#X obj 39 193 *~;
#X obj 39 231 dac~ 1 2;
#X text 81 189 wrong!;
#X obj 266 211 line~;
#X obj 266 23 vsl 15 128 0 127 0 0 empty empty empty 0 -9 0 10 -262144
-1 -1 2700 1;
#X obj 266 164 / 127;
#X msg 266 187 \$1 20;
#X obj 179 25 osc~ 100;
#X obj 179 233 *~;
#X obj 179 271 dac~ 1 2;
#X text 221 229 right!;
#X connect 0 0 3 0;
#X connect 1 0 2 0;
#X connect 2 0 3 1;
#X connect 3 0 4 0;
#X connect 3 0 4 1;
#X connect 6 0 11 1;
#X connect 7 0 8 0;
#X connect 8 0 9 0;
#X connect 9 0 6 0;
#X connect 10 0 11 0;
#X connect 11 0 12 0;
#X connect 11 0 12 1;
