#N canvas 165 245 791 440 10;
#X obj 92 20 +~ 1;
#X text 126 20 calculated 44100 times a second;
#X obj 92 148 osc~ 100;
#X text 126 177 calculated 44100 times a second;
#N canvas 507 465 450 300 something 0;
#X obj 37 37 inlet~;
#X restore 92 227 pd something doesn't matter;
#X obj 92 177 *~ 0;
#X text 98 199 altough only zeos come out here;
#X text 133 308 calculated 44100 times a second;
#N canvas 507 465 450 300 something 0;
#X obj 37 37 inlet~;
#X restore 94 346 pd something doesn't matter;
#X obj 94 286 sig~ 1;
#X text 133 320 altough it's input doesn't change;
#X obj 94 315 *~ 27;
#X floatatom 439 28 5 0 0 0 - - -;
#X floatatom 439 98 5 0 0 0 - - -;
#X text 469 61 Not calculated at all intil input chnanges;
#X obj 437 170 metro 1;
#X obj 437 149 tgl 15 0 empty empty empty 17 7 0 10 -262144 -1 -1 1
1;
#X msg 437 193 1;
#X floatatom 492 222 5 0 0 0 - - -;
#X text 526 219 calculated 1000 times per second because;
#X text 526 230 we forced it using metro;
#X msg 437 306 1;
#X obj 437 259 tgl 15 0 empty empty empty 17 7 0 10 -262144 -1 -1 1
1;
#X obj 437 327 + 1;
#X floatatom 437 364 5 0 0 0 - - -;
#X obj 437 215 + 0;
#X obj 478 366 bng 15 250 50 0 empty empty empty 17 7 0 10 -262144
-1 -1;
#X obj 437 280 metro 100;
#X text 463 332 we forced it using metro;
#X text 463 321 calculated 10 times per second because;
#X text 463 342 altough its input does not change;
#X obj 92 77 snapshot~;
#X floatatom 92 97 5 0 0 0 - - -;
#X obj 97 56 metrum 30 1;
#X text 156 80 (conversion to message domain;
#X text 156 92 just so we can see);
#X text 97 412 (sampling rate is 44100Hz);
#X obj 439 61 + 27;
#X text 126 32 altough nothing is connected to the input;
#X obj 437 391 change;
#X floatatom 437 417 5 0 0 0 - - -;
#X obj 478 418 bng 15 250 50 0 empty empty empty 17 7 0 10 -262144
-1 -1;
#X text 478 390 Filtering out Repetitions;
#X connect 0 0 31 0;
#X connect 2 0 5 0;
#X connect 5 0 4 0;
#X connect 9 0 11 0;
#X connect 11 0 8 0;
#X connect 12 0 37 0;
#X connect 15 0 17 0;
#X connect 16 0 15 0;
#X connect 17 0 25 0;
#X connect 18 0 25 1;
#X connect 21 0 23 0;
#X connect 22 0 27 0;
#X connect 23 0 24 0;
#X connect 23 0 26 0;
#X connect 24 0 39 0;
#X connect 25 0 18 0;
#X connect 27 0 21 0;
#X connect 31 0 32 0;
#X connect 33 0 31 0;
#X connect 37 0 13 0;
#X connect 39 0 40 0;
#X connect 39 0 41 0;
