#N canvas 1922 56 1916 994 12;
#N canvas 0 50 450 250 (subpatch) 0;
#X array granu 153400 float 2;
#X coords 0 1 153400 -1 200 140 1;
#X restore 277 28 graph;
#X obj 119 114 soundfiler;
#X obj 119 41 openpanel;
#X obj 119 22 bng 15 250 50 0 empty empty empty 17 7 0 10 -262144 -1
-1;
#X floatatom 126 138 10 0 0 0 - - -, f 10;
#X obj 119 89 prepend read -resize;
#X msg 119 65 \$1 granu;
#X obj 121 457 phasor~;
#X obj 119 158 s lenSamps;
#X obj 121 246 r lenSamps;
#X obj 276 197 samplerate~;
#X floatatom 312 224 5 0 0 0 - - -, f 5;
#X obj 276 173 loadbang;
#X obj 121 275 / 44100;
#X obj 276 224 s sr;
#X obj 201 247 r sr;
#X obj 121 300 !/ 1;
#X text 155 299 reciprocal;
#X floatatom 121 333 5 0 0 0 - - -, f 5;
#X text 161 333 Hz;
#X obj 220 667 tabread4~ granu;
#X obj 120 512 *~;
#X obj 138 488 r lenSamps;
#X obj 237 497 phasor~;
#X obj 447 424 s windowSize;
#X floatatom 447 403 5 0 0 0 - - -, f 5;
#X obj 447 378 init 1024;
#X obj 447 357 bng 15 250 50 0 empty empty empty 17 7 0 10 -262144
-1 -1;
#X obj 183 527 delta~;
#X obj 183 555 <~ 0;
#X obj 121 596 sah~ 0.5;
#X obj 447 557 s windowHz;
#X obj 447 505 / 44100;
#X obj 493 481 r sr;
#X obj 447 530 !/ 1;
#X text 481 529 reciprocal;
#X obj 447 454 r windowSize;
#X obj 237 469 r windowHz;
#X obj 221 638 +~;
#X obj 256 534 r windowSize;
#X obj 238 558 *~;
#X obj 278 316 hsl 128 15 0 127 0 0 empty empty empty -2 -8 0 10 -262144
-1 -1 8000 1;
#X obj 275 395 line~;
#X msg 275 368 \$1 20;
#X obj 121 382 sig~;
#X obj 122 426 *~;
#X obj 275 340 scale 0 127 -2 2;
#X text 283 295 playback speed;
#X obj 348 614 expr~ sin($v1*3.1428);
#X obj 221 713 *~;
#X obj 348 667 clip~ 0 1;
#X obj 349 640 *~ 5;
#X text 253 713 windowing;
#X text 343 592 generating a distorted sine window;
#X text 268 735 NOTE: This patch demonstrates granular smapling \,
but it does not implement multiple grains \, so it is not entirely
correct.;
#X obj 221 779 dac~;
#X connect 1 0 4 0;
#X connect 1 0 8 0;
#X connect 2 0 6 0;
#X connect 3 0 2 0;
#X connect 5 0 1 0;
#X connect 6 0 5 0;
#X connect 7 0 21 0;
#X connect 9 0 13 0;
#X connect 10 0 11 0;
#X connect 10 0 14 0;
#X connect 12 0 10 0;
#X connect 13 0 16 0;
#X connect 15 0 13 1;
#X connect 16 0 18 0;
#X connect 18 0 44 0;
#X connect 20 0 49 0;
#X connect 21 0 30 0;
#X connect 22 0 21 1;
#X connect 23 0 28 0;
#X connect 23 0 40 0;
#X connect 23 0 48 0;
#X connect 25 0 24 0;
#X connect 26 0 25 0;
#X connect 27 0 26 0;
#X connect 28 0 29 0;
#X connect 29 0 30 1;
#X connect 30 0 38 0;
#X connect 32 0 34 0;
#X connect 33 0 32 1;
#X connect 34 0 31 0;
#X connect 36 0 32 0;
#X connect 37 0 23 0;
#X connect 38 0 20 0;
#X connect 39 0 40 1;
#X connect 40 0 38 1;
#X connect 41 0 46 0;
#X connect 42 0 45 1;
#X connect 43 0 42 0;
#X connect 44 0 45 0;
#X connect 45 0 7 0;
#X connect 46 0 43 0;
#X connect 48 0 51 0;
#X connect 49 0 55 0;
#X connect 49 0 55 1;
#X connect 50 0 49 1;
#X connect 51 0 50 0;
