#N canvas 568 235 842 440 10;
#X obj 104 263 dac~ 1 2;
#X obj 220 127 linSPectrumDraw;
#N canvas 13 440 587 411 simpleDelay 1;
#X obj 114 203 +~;
#X obj 125 48 delwrite~ eins 1000;
#X floatatom 337 72 5 0 0 0 - - -;
#X obj 337 92 expr $f1/44100.;
#X obj 6 3 block~ 1;
#X obj 110 6 inlet~;
#X obj 114 223 outlet~;
#X obj 337 117 * 1000;
#X text 373 72 Del in samples;
#X text 438 92 Samples to seconds;
#X text 381 117 Seconds to milliseconds;
#X obj 135 176 vd~ eins 1000;
#X obj 273 236 delread~ eins;
#X obj 134 78 cycle~ 0.1;
#X obj 134 126 +~ 20;
#X obj 134 103 *~ 5;
#X connect 0 0 6 0;
#X connect 2 0 3 0;
#X connect 3 0 7 0;
#X connect 5 0 1 0;
#X connect 5 0 0 0;
#X connect 11 0 0 1;
#X connect 13 0 15 0;
#X connect 14 0 11 0;
#X connect 15 0 14 0;
#X restore 113 51 pd simpleDelay;
#X obj 116 17 noise~;
#X connect 2 0 1 0;
#X connect 2 0 0 0;
#X connect 2 0 0 1;
#X connect 3 0 2 0;
