#N canvas 669 173 979 826 10;
#X declare -lib iemgui;
#X obj 29 97 noise~;
#N canvas 131 117 1024 612 FIRcomb 1;
#X obj 11 -7 block~ 1;
#X obj 7 18 cnv 15 450 260 empty empty Patch_Representation 20 12 0
14 -233017 -66577 0;
#X obj 23 42 inlet~;
#X obj 23 236 outlet~;
#X obj 38 165 *~ 0;
#X obj 38 112 delread~ comb1 0;
#X obj 23 197 +~;
#X text 66 41 Audio In (X);
#X obj 176 78 inlet;
#X text 217 77 Delay Time in ms. (1000*M/sr);
#X obj 210 115 inlet;
#X text 251 114 g \, gain of the delayed signal.;
#X obj 460 18 cnv 15 550 260 empty empty Block-Diagram_Representation
20 12 0 14 -233017 -66577 0;
#X obj 468 81 iem_image FIRcomb.gif 0 0 empty empty;
#X obj 468 41 loadbang;
#X text 72 236 Audio Out (Y);
#X obj 7 281 cnv 15 450 100 empty empty Difference-Equation_Representation
20 12 0 14 -233017 -66577 0;
#X text 26 314 y[n] = g*x[n-m]+x[n];
#X obj 461 281 cnv 15 550 290 empty empty Impulse-response_Representation
20 12 0 14 -233017 -66577 0;
#X obj 469 344 iem_image FIRcombIR.gif 0 0 empty empty;
#X obj 469 304 loadbang;
#X obj 39 78 delwrite~ comb1 1000;
#X msg 468 61 open FIRcomb.gif;
#X msg 469 324 open FIRcombIR.gif;
#X connect 2 0 6 0;
#X connect 2 0 21 0;
#X connect 4 0 6 1;
#X connect 5 0 4 0;
#X connect 6 0 3 0;
#X connect 8 0 5 0;
#X connect 10 0 4 1;
#X connect 14 0 22 0;
#X connect 20 0 23 0;
#X connect 22 0 13 0;
#X connect 23 0 19 0;
#X restore 28 163 pd FIRcomb;
#X obj 28 42 import iemgui;
#X obj 28 389 output~;
#X obj 59 197 linspectrumdraw;
#X floatatom 130 113 5 0 0 0 - - -;
#X floatatom 222 115 5 0 0 0 - - -;
#X text 126 92 Time in ms;
#X text 219 92 Gain;
#X connect 0 0 1 0;
#X connect 1 0 4 0;
#X connect 1 0 3 0;
#X connect 5 0 1 1;
#X connect 6 0 1 2;
