#N canvas 669 173 979 826 10;
#X declare -lib iemgui;
#X obj 28 139 noise~;
#X obj 28 42 import iemgui;
#X obj 28 389 output~;
#X obj 59 197 linspectrumdraw;
#X floatatom 130 113 5 0 0 0 - - -;
#X text 165 113 Time in ms;
#X msg 130 40 44100;
#X obj 130 62 expr 1/$f1;
#X obj 130 87 * 1000;
#X obj 130 19 loadbang;
#X text 170 40 samplerate;
#N canvas 254 241 1024 612 movingAverage 1;
#X obj 11 -7 block~ 1;
#X obj 7 18 cnv 15 450 260 empty empty Patch_Representation 20 12 0
14 -233017 -66577 0;
#X obj 23 42 inlet~;
#X obj 53 253 outlet~;
#X obj 68 111 delread~ comb1 0;
#X obj 53 214 +~;
#X text 66 41 Audio In (X);
#X obj 68 90 inlet;
#X text 109 89 Delay Time in ms. (1000*M/sr);
#X obj 69 68 delwrite~ comb1 100;
#X obj 460 18 cnv 15 550 260 empty empty Block-Diagram_Representation
20 12 0 14 -233017 -66577 0;
#X obj 468 81 iem_image ../../img/FIRcomb.gif 0 0 empty empty;
#X msg 468 61 open ../../img/FIRcomb.gif;
#X obj 468 41 loadbang;
#X text 102 253 Audio Out (Y);
#X obj 7 281 cnv 15 450 100 empty empty Difference-Equation_Representation
20 12 0 14 -233017 -66577 0;
#X obj 461 281 cnv 15 550 290 empty empty Impulse-response_Representation
20 12 0 14 -233017 -66577 0;
#X obj 469 344 iem_image ../../img/MovingAverageIR.gif 0 0 empty empty
;
#X obj 469 304 loadbang;
#X obj 68 182 *~ 0.5;
#X obj 23 183 *~ 0.5;
#X msg 469 324 open ../../img/MovingAverageIR.gif;
#X obj 102 136 inlet;
#X obj 56 161 expr 1-$f1;
#X text 26 314 y[n] = (1-a)*x[n-m]+a*x[n];
#X text 144 136 coefficient. (a);
#X connect 2 0 9 0;
#X connect 2 0 20 0;
#X connect 4 0 19 0;
#X connect 5 0 3 0;
#X connect 7 0 4 0;
#X connect 12 0 11 0;
#X connect 13 0 12 0;
#X connect 18 0 21 0;
#X connect 19 0 5 1;
#X connect 20 0 5 0;
#X connect 21 0 17 0;
#X connect 22 0 23 0;
#X connect 22 0 19 1;
#X connect 23 0 20 1;
#X restore 28 163 pd movingAverage;
#X floatatom 245 113 5 0 0 0 - - -;
#X text 280 112 Coefficient(a);
#X obj 245 83 init 0.5;
#X connect 0 0 11 0;
#X connect 4 0 11 1;
#X connect 6 0 7 0;
#X connect 7 0 8 0;
#X connect 8 0 4 0;
#X connect 9 0 6 0;
#X connect 11 0 3 0;
#X connect 11 0 2 0;
#X connect 12 0 11 2;
#X connect 14 0 12 0;
