#N canvas 945 67 450 752 10;
#X declare -lib zexy;
#X obj 139 435 *~ 0.2;
#X obj 140 502 dac~;
#X obj 72 176 noise~;
#X obj 136 183 dirac~;
#X obj 110 141 t b f;
#X msg 110 111 32;
#X obj 319 422 print~;
#X floatatom 222 221 5 0 0 0 - - -;
#X text 264 222 filter coefficient (/100);
#X obj 154 324 z~;
#X obj 153 357 *~;
#X obj 222 253 / 100;
#X obj 138 398 -~;
#X obj 79 280 tgl 15 0 empty empty empty 17 7 0 10 -262144 -1 -1 0
1;
#X obj 194 81 import zexy;
#X obj 140 280 multiplex~;
#X connect 0 0 1 0;
#X connect 0 0 1 1;
#X connect 2 0 15 0;
#X connect 3 0 15 1;
#X connect 4 0 6 0;
#X connect 4 1 3 0;
#X connect 5 0 4 0;
#X connect 7 0 11 0;
#X connect 9 0 10 0;
#X connect 10 0 12 1;
#X connect 11 0 10 1;
#X connect 12 0 0 0;
#X connect 12 0 6 0;
#X connect 13 0 15 0;
#X connect 15 0 9 0;
#X connect 15 0 12 0;
