#N canvas 676 22 701 770 10;
#X declare -lib jmmmp;
#N canvas 111 166 550 442 filter 0;
#X obj 102 305 outlet~;
#N canvas 897 81 450 300 del_in 0;
#X obj 137 67 inlet~;
#X obj 184 133 delwrite~ inverse 1000;
#X obj 138 156 outlet~;
#X connect 0 0 1 0;
#X connect 0 0 2 0;
#X restore 102 257 pd del_in;
#N canvas 792 183 450 451 del_out 0;
#X obj 222 80 samplerate~;
#X obj 195 7 loadbang;
#X obj 195 124 /;
#X obj 195 102 1000;
#X obj 195 31 bng 15 250 50 0 empty empty empty 17 7 0 10 -262144 -1
-1;
#X obj 195 56 t b b;
#X floatatom 195 149 12 0 0 0 - - -;
#X obj 179 346 outlet~;
#X obj 195 183 delread~ inverse;
#X obj 90 220 inlet~;
#X obj 180 317 +~;
#X obj 219 218 inlet;
#X obj 197 291 *~;
#X obj 90 284 *~ 1;
#X obj 110 253 expr 1-$f1;
#X connect 0 0 2 1;
#X connect 1 0 4 0;
#X connect 2 0 6 0;
#X connect 3 0 2 0;
#X connect 4 0 5 0;
#X connect 5 0 3 0;
#X connect 5 1 0 0;
#X connect 6 0 8 0;
#X connect 8 0 12 0;
#X connect 9 0 13 0;
#X connect 10 0 7 0;
#X connect 11 0 12 1;
#X connect 11 0 14 0;
#X connect 12 0 10 1;
#X connect 13 0 10 0;
#X connect 14 0 13 1;
#X restore 101 205 pd del_out;
#X obj 100 152 inlet~;
#X obj 95 126 block~ 1;
#X obj 284 64 inlet;
#X connect 1 0 0 0;
#X connect 2 0 1 0;
#X connect 3 0 2 0;
#X connect 5 0 2 1;
#X restore 84 308 pd filter;
#X obj 85 355 *~ 0.2;
#X obj 86 422 dac~;
#X obj 85 180 noise~;
#X obj 142 180 dirac~;
#X obj 115 141 t b f;
#X msg 115 111 32;
#X obj 159 360 print~;
#X floatatom 283 246 5 0 0 0 - - -;
#X obj 45 230 tgl 15 0 empty empty empty 17 7 0 10 -262144 -1 -1 0
1;
#X obj 516 70 import jmmmp;
#X obj 85 251 multiplex~;
#X obj 47 482 linSpectrumDraw;
#X floatatom 283 89 5 0 0 0 - - -;
#X obj 298 135 samplerate~;
#X obj 298 114 loadbang;
#X obj 283 178 * 6.28319;
#X text 345 178 2*pi;
#X obj 283 200 sin;
#X obj 283 157 /;
#X obj 283 223 expr 1-$f1;
#X text 318 89 Cutoff;
#X text 324 244 filter coefficient;
#X connect 0 0 1 0;
#X connect 0 0 7 0;
#X connect 0 0 12 0;
#X connect 1 0 2 0;
#X connect 1 0 2 1;
#X connect 3 0 11 0;
#X connect 4 0 11 1;
#X connect 5 0 7 0;
#X connect 5 1 4 0;
#X connect 6 0 5 0;
#X connect 8 0 0 1;
#X connect 9 0 11 0;
#X connect 11 0 0 0;
#X connect 13 0 19 0;
#X connect 14 0 19 1;
#X connect 15 0 14 0;
#X connect 16 0 18 0;
#X connect 18 0 20 0;
#X connect 19 0 16 0;
#X connect 20 0 8 0;
