#N canvas 676 22 701 770 10;
#X declare -lib jmmmp;
#N canvas 111 166 550 442 filter 0;
#X obj 102 305 outlet~;
#N canvas 897 81 450 300 del_in 0;
#X obj 137 67 inlet~;
#X obj 184 133 delwrite~ inverse 1000;
#X obj 138 156 outlet~;
#X connect 0 0 1 0;
#X connect 0 0 2 0;
#X restore 102 257 pd del_in;
#N canvas 792 183 450 451 del_out 0;
#X obj 222 80 samplerate~;
#X obj 195 7 loadbang;
#X obj 195 124 /;
#X obj 195 102 1000;
#X obj 195 31 bng 15 250 50 0 empty empty empty 17 7 0 10 -262144 -1
-1;
#X obj 195 56 t b b;
#X floatatom 195 149 12 0 0 0 - - -;
#X obj 160 301 outlet~;
#X obj 195 183 delread~ inverse;
#X obj 92 205 inlet~;
#X obj 161 272 +~;
#X obj 219 218 inlet;
#X obj 178 246 *~;
#X connect 0 0 2 1;
#X connect 1 0 4 0;
#X connect 2 0 6 0;
#X connect 3 0 2 0;
#X connect 4 0 5 0;
#X connect 5 0 3 0;
#X connect 5 1 0 0;
#X connect 6 0 8 0;
#X connect 8 0 12 0;
#X connect 9 0 10 0;
#X connect 10 0 7 0;
#X connect 11 0 12 1;
#X connect 12 0 10 1;
#X restore 101 205 pd del_out;
#X obj 100 152 inlet~;
#X obj 95 126 block~ 1;
#X floatatom 284 95 5 0 0 0 - - -;
#X obj 284 123 / 100;
#X obj 284 64 inlet;
#X connect 1 0 0 0;
#X connect 2 0 1 0;
#X connect 3 0 2 0;
#X connect 5 0 6 0;
#X connect 6 0 2 1;
#X connect 7 0 5 0;
#X restore 84 308 pd filter;
#X obj 85 355 *~ 0.2;
#X obj 86 422 dac~;
#X obj 56 186 noise~;
#X obj 137 180 dirac~;
#X obj 110 141 t b f;
#X msg 110 111 32;
#X obj 159 360 print~;
#X floatatom 161 265 5 0 0 0 - - -;
#X text 202 263 filter coefficient (/100);
#X obj 45 230 tgl 15 0 empty empty empty 17 7 0 10 -262144 -1 -1 1
1;
#X obj 306 104 import jmmmp;
#X obj 18 461 spectrogram~;
#X obj 85 251 multiplex~;
#X connect 0 0 1 0;
#X connect 0 0 7 0;
#X connect 0 0 12 0;
#X connect 1 0 2 0;
#X connect 1 0 2 1;
#X connect 3 0 13 0;
#X connect 4 0 13 1;
#X connect 5 0 7 0;
#X connect 5 1 4 0;
#X connect 6 0 5 0;
#X connect 8 0 0 1;
#X connect 10 0 13 0;
#X connect 13 0 0 0;
