#N canvas 443 105 1123 883 10;
#X obj 162 449 cartopol~;
#X obj 162 494 expr~ 20*log10($v1);
#X obj 162 421 rfft~;
#X obj 159 361 block~ 512;
#X obj 162 471 /~ 256;
#X obj 162 518 maximum~ -30;
#X text 102 111 +6;
#X text 105 147 0;
#X obj 105 565 metro 20;
#X obj 103 264 tgl 15 0 empty empty empty 17 7 0 10 -262144 -1 -1 1
1;
#X obj 251 543 bng 15 250 50 0 empty empty empty 17 7 0 10 -262144
-1 -1;
#N canvas 0 22 450 278 (subpatch) 0;
#X array \$0-spec3 256 float 4;
#X coords 0 6 255 -30 500 140 2 0 0;
#X restore 119 115 graph;
#X text 98 249 -30;
#X text 121 255 DC;
#X text 610 256 sr/2;
#X obj 193 565 count~ 0 512;
#X obj 193 541 loadbang;
#X obj 162 396 inlet~;
#X obj 26 226 loadbang;
#X msg 26 248 1;
#X obj 162 589 poke~ \$0-spec3;
#X connect 0 0 4 0;
#X connect 1 0 5 0;
#X connect 2 0 0 0;
#X connect 2 1 0 1;
#X connect 4 0 1 0;
#X connect 5 0 20 0;
#X connect 8 0 20 0;
#X connect 9 0 8 0;
#X connect 10 0 15 0;
#X connect 15 0 20 1;
#X connect 16 0 15 0;
#X connect 17 0 2 0;
#X connect 18 0 19 0;
#X connect 19 0 9 0;
#X coords 0 -1 1 1 545 180 1 100 100;
