#N canvas 187 72 1113 883 10;
#X declare -lib zexy;
#X declare -lib zexy;
#X obj 287 304 +~;
#X obj 129 -177 import zexy;
#X obj 189 106 z~;
#X obj 217 106 z~;
#X obj 246 106 z~;
#X obj 274 106 z~;
#X obj 302 106 z~;
#X obj 330 106 z~;
#X obj 359 106 z~;
#X obj 387 106 z~;
#X obj 274 150 *~ 1;
#X obj 309 149 *~ 0.5;
#X obj 358 149 *~ 0.25;
#X obj 413 147 *~ 0.125;
#X obj 472 146 *~ 0.1;
#X obj 226 149 *~ 0.5;
#X obj 171 150 *~ 0.25;
#X obj 105 152 *~ 0.125;
#X obj 54 153 *~ 0.1;
#X obj 142 -43 noise~;
#X obj 376 -72 dirac~;
#X obj 350 -114 t b f;
#X msg 350 -144 32;
#X obj 349 380 print~;
#X obj 142 -7 multiplex~;
#X obj 112 -43 tgl 15 0 empty empty empty 17 7 0 10 -262144 -1 -1 1
1;
#X obj 158 407 dac~ 1 2;
#X obj 144 433 linSpectrumDraw;
#X obj 144 377 multiplex~;
#X obj 129 -154 import zexy;
#X obj 107 344 tgl 15 0 empty empty empty 17 7 0 10 -262144 -1 -1 1
1;
#X connect 0 0 23 0;
#X connect 0 0 28 1;
#X connect 2 0 3 0;
#X connect 2 0 17 0;
#X connect 3 0 4 0;
#X connect 3 0 16 0;
#X connect 4 0 5 0;
#X connect 4 0 15 0;
#X connect 5 0 6 0;
#X connect 5 0 10 0;
#X connect 6 0 7 0;
#X connect 6 0 11 0;
#X connect 7 0 8 0;
#X connect 7 0 12 0;
#X connect 8 0 9 0;
#X connect 8 0 13 0;
#X connect 9 0 14 0;
#X connect 10 0 0 0;
#X connect 11 0 0 0;
#X connect 12 0 0 0;
#X connect 13 0 0 0;
#X connect 14 0 0 0;
#X connect 15 0 0 0;
#X connect 16 0 0 0;
#X connect 17 0 0 0;
#X connect 18 0 0 0;
#X connect 19 0 24 0;
#X connect 20 0 24 1;
#X connect 21 0 23 0;
#X connect 21 1 20 0;
#X connect 22 0 21 0;
#X connect 24 0 2 0;
#X connect 24 0 18 0;
#X connect 24 0 28 0;
#X connect 25 0 24 0;
#X connect 28 0 27 0;
#X connect 28 0 26 0;
#X connect 28 0 26 1;
#X connect 30 0 28 0;
