#N canvas 32 256 570 364 10;
#X obj 18 94 +~;
#X obj 33 66 delay~;
#X obj 18 129 outlet~;
#X obj 66 25 loadbang;
#X msg 66 45 1;
#X obj 18 8 inlet~;
#X connect 0 0 2 0;
#X connect 1 0 0 1;
#X connect 3 0 4 0;
#X connect 4 0 1 1;
#X connect 5 0 0 0;
#X connect 5 0 1 0;
