#N canvas 32 256 570 364 10;
#X obj 18 74 +~;
#X obj 18 8 noise~;
#X obj 33 46 delay~;
#X floatatom 66 10 5 0 0 0 - - -;
#X text 103 10 delay in samples;
#X obj 18 98 spectrogram~;
#X connect 0 0 5 0;
#X connect 1 0 0 0;
#X connect 1 0 2 0;
#X connect 2 0 0 1;
#X connect 3 0 2 1;
